<?xml version="1.0" encoding="UTF-8" standalone="no"?>
<!-- Created with Inkscape (http://www.inkscape.org/) -->

<svg
   xmlns:dc="http://purl.org/dc/elements/1.1/"
   xmlns:cc="http://creativecommons.org/ns#"
   xmlns:rdf="http://www.w3.org/1999/02/22-rdf-syntax-ns#"
   xmlns:svg="http://www.w3.org/2000/svg"
   xmlns="http://www.w3.org/2000/svg"
   xmlns:sodipodi="http://sodipodi.sourceforge.net/DTD/sodipodi-0.dtd"
   xmlns:inkscape="http://www.inkscape.org/namespaces/inkscape"
   width="210mm"
   height="297mm"
   viewBox="0 0 744.09448819 1052.3622047"
   id="svg2"
   version="1.1"
   inkscape:version="0.91 r13725"
   sodipodi:docname="pattern_1.svg">
  <defs
     id="defs4" />
  <sodipodi:namedview
     id="base"
     pagecolor="#ffffff"
     bordercolor="#000000"
     borderopacity="1.0"
     inkscape:pageopacity="0.0"
     inkscape:pageshadow="2"
     inkscape:zoom="0.7"
     inkscape:cx="271.36546"
     inkscape:cy="785.48836"
     inkscape:document-units="px"
     inkscape:current-layer="layer1"
     showgrid="false"
     inkscape:window-width="1366"
     inkscape:window-height="706"
     inkscape:window-x="-8"
     inkscape:window-y="-8"
     inkscape:window-maximized="1" />
  <metadata
     id="metadata7">
    <rdf:RDF>
      <cc:Work
         rdf:about="">
        <dc:format>image/svg+xml</dc:format>
        <dc:type
           rdf:resource="http://purl.org/dc/dcmitype/StillImage" />
        <dc:title />
      </cc:Work>
    </rdf:RDF>
  </metadata>
  <g
     inkscape:label="Layer 1"
     inkscape:groupmode="layer"
     id="layer1">
    <path
       style="fill:none;fill-rule:evenodd;stroke:#000000;stroke-width:1.87070858px"
       d="M 313.31369,292.4815 C 313.6421,107.02797 204.72017,41.496697 49.011796,142.2341 -96.79675,236.56671 121.5367,405.68262 272.08661,319.11769 432.8583,226.67531 435.14906,99.580512 270.05371,15.101823 115.45503,-64.005781 78.163047,209.6345 228.40547,296.73208 388.84875,389.74323 500.06143,328.17971 490.67447,142.96361 481.88431,-30.476604 226.2589,74.047736 225.9514,247.71028 225.62299,433.16381 334.54494,498.69507 490.25331,397.95767 636.06186,303.62506 417.7284,134.50914 267.17848,221.07408 106.4068,313.51644 104.11604,440.61126 269.21138,525.08995 423.81007,604.19756 461.10205,330.55728 310.85962,243.45968 150.41635,150.44854 39.203654,212.01207 48.590626,397.22818 57.380785,570.66838 313.00619,466.14404 313.31369,292.4815 Z"
       id="path3333"
       inkscape:connector-curvature="0" />
  </g>
</svg>
